<?xml version="1.0" encoding="UTF-8" standalone="no"?>
<!-- Created with Inkscape (http://www.inkscape.org/) -->

<svg
   width="36.053417mm"
   height="51.986202mm"
   viewBox="0 0 36.053417 51.986202"
   version="1.1"
   id="svg1"
   xml:space="preserve"
   sodipodi:docname="atena-logo-icon.svg"
   inkscape:version="1.3.2 (091e20e, 2023-11-25, custom)"
   xmlns:inkscape="http://www.inkscape.org/namespaces/inkscape"
   xmlns:sodipodi="http://sodipodi.sourceforge.net/DTD/sodipodi-0.dtd"
   xmlns="http://www.w3.org/2000/svg"
   xmlns:svg="http://www.w3.org/2000/svg"><sodipodi:namedview
     id="namedview1"
     pagecolor="#ffffff"
     bordercolor="#000000"
     borderopacity="0.25"
     inkscape:showpageshadow="2"
     inkscape:pageopacity="0.0"
     inkscape:pagecheckerboard="0"
     inkscape:deskcolor="#d1d1d1"
     inkscape:document-units="mm"
     inkscape:zoom="5.9812288"
     inkscape:cx="49.989728"
     inkscape:cy="22.152639"
     inkscape:window-width="1920"
     inkscape:window-height="1009"
     inkscape:window-x="-8"
     inkscape:window-y="-8"
     inkscape:window-maximized="1"
     inkscape:current-layer="layer1" /><defs
     id="defs1" /><g
     inkscape:label="Layer 1"
     inkscape:groupmode="layer"
     id="layer1"
     transform="translate(-734.27805,-376.82393)"><path
       id="path2"
       style="fill:#f54e02;fill-opacity:1;stroke:none"
       d="m 756.14395,376.829 c -10.13987,-0.22182 -19.4671,6.85973 -21.40541,16.90802 -0.49628,2.57272 -0.37254,5.19957 0.0599,7.77265 0.36322,2.16098 1.02422,4.33158 1.00149,6.54017 -0.013,1.2648 -0.33934,2.62798 -1.02991,3.69693 -0.12381,0.19166 -0.29254,0.46146 -0.49196,0.66404 0.35167,0.77594 0.73686,1.50081 1.14257,2.16369 1.08987,-0.56591 2.18581,-1.03786 3.12797,-1.896 3.40537,-3.10173 1.83132,-7.44073 2.49184,-11.35848 0.23151,-1.37317 1.20315,-2.19193 1.62316,-3.4122 0.37237,-1.08183 0.32102,-2.38096 0.66611,-3.50728 0.6995,-2.28306 2.13238,-4.33092 3.84472,-5.96759 3.09719,-2.96038 7.38721,-4.04385 11.56415,-3.58997 0.99368,0.10799 1.99585,0.35145 2.93833,0.68058 0.39113,0.13658 0.99998,0.56804 1.42161,0.47336 0.62296,-0.13988 1.25263,-1.11783 1.70636,-1.54047 1.31654,-1.22638 3.40512,-2.18775 4.45503,-3.61012 -1.00842,-0.50166 -1.90477,-1.20238 -2.93833,-1.6769 -2.91885,-1.34007 -5.9996,-2.0772 -9.19427,-2.29598 -0.32856,-0.0225 -0.65631,-0.0373 -0.9834,-0.0445 z m 0.15451,9.26766 c -3.19776,0.073 -6.31594,1.23045 -8.65011,3.56464 -3.15424,3.15422 -4.34509,7.58448 -3.05925,11.84837 0.47674,1.58084 1.96217,2.86199 1.92081,4.55011 -0.0743,3.03251 -3.38854,4.51673 -4.70875,6.91896 -0.55801,1.01533 -0.92261,2.15344 -0.97359,3.31762 -0.0237,0.54 0.28676,1.41556 0.0801,1.89601 -0.2245,0.52199 -0.84774,1.01637 -1.32808,1.45624 l -1.81591,1.95389 c 0.35185,0.31534 0.70555,0.62841 1.07022,0.92501 3.07894,2.5042 6.62831,4.21547 10.42623,5.30562 3.43912,0.98714 7.17314,1.19879 10.71098,0.75861 3.44455,-0.42858 6.73215,-1.50496 9.72757,-3.09284 -1.02373,-1.20953 -2.027,-2.49647 -3.28249,-3.48247 -1.73165,-1.20409 -3.54207,-2.4415 -5.49734,-3.25562 0.29421,-1.58376 0.32589,-3.46427 1.04283,-4.9289 1.823,0.5135 4.65125,1.02537 5.54695,-1.23196 0.29963,-0.75511 -0.18195,-1.47385 0.0212,-2.18023 0.35338,-1.22872 1.13095,-2.22975 0.78238,-3.50728 0.7921,-0.24069 1.78538,-0.42576 2.00143,-1.42162 0.10023,-0.46202 -0.24776,-1.09294 -0.40825,-1.5167 -0.41346,-1.09175 -0.83809,-2.21055 -1.20406,-3.31763 -0.25239,-0.7635 0.056,-1.52763 -0.003,-2.30167 -0.10333,-1.36161 -0.612,-2.68005 -0.67076,-4.04885 -3.93495,0.49992 -7.5569,2.43531 -10.99519,4.29483 -1.3266,0.71746 -2.79576,2.07237 -4.26537,2.3859 -2.87147,0.61261 -4.61729,-3.02273 -2.61225,-5.0276 0.52413,-0.52408 1.29298,-0.8551 2.04381,-0.78341 0.51175,0.0489 1.0121,0.38394 1.51618,0.15864 2.43856,-1.08993 4.82299,-3.0364 6.91948,-4.67051 0.74204,-0.57838 1.46705,-1.18786 2.18022,-1.80144 0.20146,-0.17333 0.64439,-0.47677 0.54933,-0.79479 -0.0967,-0.32353 -0.65642,-0.55717 -0.92863,-0.70176 -0.93881,-0.49868 -1.90087,-0.77478 -2.93832,-0.98392 -1.05749,-0.21318 -2.13234,-0.30958 -3.19826,-0.28525 z m 10.02316,1.47987 c -0.82841,0.35022 -1.4985,1.06384 -2.17971,1.63453 -1.27511,1.06825 -2.54637,2.14315 -3.88658,3.13004 -1.97536,1.45461 -4.24465,3.34956 -6.54017,4.25762 -0.99092,0.39199 -1.79307,-0.81737 -2.82567,0.19224 -1.09739,1.07293 -0.3365,3.10473 1.2144,3.10523 1.24686,4.1e-4 2.53624,-1.28621 3.60184,-1.86397 2.73881,-1.48491 5.50255,-2.91259 8.43618,-3.96875 0.91369,-0.32894 1.8923,-0.55171 2.84324,-0.7431 0.3,-0.0604 0.92593,-0.066 1.08004,-0.38189 0.1891,-0.38756 -0.0944,-1.08668 -0.19121,-1.47588 -0.33869,-1.36108 -0.77439,-2.70643 -1.55236,-3.88607 z m -1.10949,9.34155 c 0.89911,-0.0354 2.02837,0.0502 2.40657,0.72347 0.25894,0.46097 0.0936,1.1018 0.046,1.5937 -0.0776,0.80196 -0.033,1.50665 0.22273,2.2748 0.28663,0.86088 0.62394,1.70492 0.92811,2.55953 0.1091,0.30656 0.36939,0.7945 0.27543,1.12448 -0.20337,0.71423 -1.68567,0.32321 -2.16886,0.74621 -0.55448,0.48541 0.48593,1.025 0.37104,1.53944 -0.15432,0.69099 -1.55032,0.86628 -2.10891,1.0449 l 1.80092,0.56844 v 0.18965 c -1.26496,0.91251 0.20038,2.28336 -0.87333,3.28042 -0.70444,0.65416 -1.87926,0.43545 -2.72852,0.26458 -2.31499,-0.46579 -4.45831,-1.40369 -6.16086,-3.07113 0.22367,0.96633 0.66151,1.92098 1.34359,2.65049 0.32112,0.34345 1.10125,0.67454 1.21129,1.1498 0.10023,0.43288 -0.13774,1.07332 -0.20877,1.50792 -0.23288,1.42474 -0.92331,3.40829 -0.50643,4.83381 0.46775,1.59947 2.63568,2.63629 3.468,4.07624 -2.19672,-0.9466 -3.93232,-2.73118 -5.87664,-4.07366 -1.91138,-1.31974 -3.88381,-2.06085 -6.0663,-2.75125 0.69505,-0.58199 1.51504,-0.97601 2.18023,-1.61489 1.86695,-1.79312 3.2439,-4.54875 3.11816,-7.20008 -0.0208,-0.43965 0.0271,-1.21702 -0.18242,-1.60248 -0.4069,-0.74846 -2.23507,-1.78832 -1.5906,-2.93316 0.18245,-0.32411 0.62118,-0.35434 0.86093,-0.0791 0.51988,0.59695 0.68201,1.13813 1.48673,0.3452 1.05909,-1.04357 1.20645,-2.50005 1.98489,-3.6928 1.18698,-1.81872 3.83375,-3.17803 5.98103,-3.39618 0.21222,-0.0215 0.4863,-0.0466 0.786,-0.0584 z m 0.0672,1.37046 c -1.55628,-0.0406 -2.54412,0.52382 -3.88658,1.23093 0.81179,0.99622 2.25846,1.4e-4 3.41271,0 l -2.36988,1.61127 2.84375,1.32705 c 0.14306,-0.4708 0.1313,-0.98123 0.3762,-1.42162 0.32042,-0.57612 1.21705,-1.24663 1.1002,-1.98902 -0.0949,-0.60304 -0.98529,-0.74579 -1.4764,-0.75861 z m -12.93926,4.98626 c 0.25939,0.002 0.42851,0.29975 0.40876,0.60513 -0.13243,2.04718 0.49065,4.3853 -0.27234,6.35052 -0.94584,2.43622 -3.45282,2.36133 -5.20691,3.8225 -0.6592,0.54912 -1.20692,1.21161 -1.62419,1.95957 -0.28003,0.50196 -0.41182,1.12508 -0.84026,1.51671 -0.52622,-2.21025 1.07154,-4.20308 2.93832,-5.18315 1.26021,-0.66162 2.58445,-0.8234 3.43493,-2.11563 0.88653,-1.34702 0.47315,-3.05757 0.33125,-4.5496 -0.0641,-0.67427 -0.0656,-1.84599 0.54467,-2.29805 0.10286,-0.0762 0.19931,-0.10852 0.28577,-0.108 z m -3.54811,16.4915 c 3.98661,0.14593 7.84493,2.98686 10.04125,6.19859 -0.52646,8e-5 -1.32048,0.14801 -1.79885,-0.0972 -0.58074,-0.29766 -1.04014,-1.05995 -1.51826,-1.50533 -1.01764,-0.94794 -2.0902,-1.78421 -3.31762,-2.44378 -2.61514,-1.40528 -5.59048,-1.10718 -8.43567,-0.88263 0.80201,-0.7241 2.27766,-0.98581 3.31711,-1.16065 0.57033,-0.0959 1.1425,-0.12989 1.71204,-0.10904 z"
       sodipodi:nodetypes="cssssccsssscsssscsscccsscsccssscsccsscsssccsssssssssssscccsscsssccscccsssscccsscsssscscsccsssssscsccssssssssscsssssscssscssscsss"
       inkscape:export-filename="atena-logo-full.svg"
       inkscape:export-xdpi="96"
       inkscape:export-ydpi="96" /><text
       xml:space="preserve"
       style="font-weight:600;font-size:0.711975px;font-family:Montserrat;-inkscape-font-specification:'Montserrat, Semi-Bold';text-align:center;letter-spacing:-0.0129787px;word-spacing:0px;text-anchor:middle;fill:#f54e02;stroke-width:0.793751;stroke-linecap:round;paint-order:markers fill stroke;fill-opacity:1"
       x="752.1698"
       y="382.63913"
       id="text1"><tspan
         sodipodi:role="line"
         id="tspan1"
         style="stroke-width:0.793751;fill:#f54e02;fill-opacity:1"
         x="752.16333"
         y="382.63913">-. . -- / - --- -.. .- / .- .-. - . / --. ..- .- .-. -.. .- / .- / ...- . .-. -.. .- -.. . .-.-.-</tspan></text></g></svg>
